<svg version="1.1" id="Layer_1" xmlns="http://www.w3.org/2000/svg" xmlns:xlink="http://www.w3.org/1999/xlink" x="0px" y="0px"
	 width="100%" viewBox="0 0 422 637" enable-background="new 0 0 422 637" xml:space="preserve">
<path fill="#FFFFFF" opacity="1.000000" stroke="none" 
	d="
M303.000000,638.000000 
	C202.353958,638.000000 101.707909,638.000000 1.030934,638.000000 
	C1.030934,425.730804 1.030934,213.461578 1.030934,1.096182 
	C141.573669,1.096182 282.147430,1.096182 422.860596,1.096182 
	C422.860596,213.333267 422.860596,425.666626 422.860596,638.000000 
	C387.249634,638.000000 351.589813,638.000000 315.619354,637.626953 
	C316.460052,637.160339 317.647125,637.216064 318.757446,636.950684 
	C335.016663,633.064697 349.016785,625.214355 359.873749,612.425110 
	C362.919495,608.837219 364.731415,604.202026 367.439209,599.898071 
	C372.359619,591.468811 375.674500,582.543274 375.834473,573.188538 
	C376.262970,548.139526 375.888580,523.076782 375.904907,497.682831 
	C375.928833,496.892151 375.881042,496.438141 375.906677,495.521545 
	C375.986725,458.154846 376.011688,421.250763 375.992035,384.346680 
	C375.982574,366.563416 375.889038,348.780182 375.906708,330.559509 
	C376.649719,326.674347 374.374542,326.978027 372.131348,326.981201 
	C350.035583,327.012573 327.939758,326.995087 305.843964,327.020447 
	C304.921783,327.021515 303.999939,327.307556 303.166931,327.446014 
	C303.166931,351.166321 303.166931,374.582886 303.093933,398.463196 
	C303.069702,426.618042 303.118500,454.309143 303.094238,482.411102 
	C303.071686,485.004028 303.122101,487.186096 303.102478,489.800537 
	C303.023071,502.380981 302.993561,514.529053 303.008118,526.677063 
	C303.051697,563.117432 303.112518,599.557800 303.093109,636.326416 
	C303.013062,637.103149 303.006531,637.551575 303.000000,638.000000 
M205.074158,588.548035 
	C205.381958,588.641602 205.689774,588.735107 206.428375,588.975586 
	C206.428375,588.975586 206.880234,589.030518 207.064438,589.536682 
	C207.375153,589.634033 207.685883,589.731384 208.427948,589.975708 
	C208.427948,589.975708 208.880295,590.030762 209.064316,590.536682 
	C209.374893,590.634094 209.685455,590.731506 210.427704,590.975952 
	C210.427704,590.975952 210.880341,591.031128 211.064301,591.536926 
	C211.374741,591.634338 211.685196,591.731689 212.427444,591.975952 
	C212.427444,591.975952 212.880234,592.030823 213.064392,592.536865 
	C213.375046,592.634216 213.685699,592.731506 214.429474,592.976074 
	C214.429474,592.976074 214.883316,593.033325 215.231445,593.697693 
	C218.818573,594.741394 222.405701,595.785095 226.427734,596.976135 
	C226.427734,596.976135 226.883316,597.033630 227.270050,597.723206 
	C228.838501,597.759216 230.406967,597.795227 232.743301,598.213867 
	C236.748978,598.556763 240.754654,598.899597 244.834518,599.248779 
	C244.834518,596.627197 244.834518,594.813721 244.979813,592.072693 
	C244.986603,571.305603 245.018326,550.538574 244.993851,529.771484 
	C244.963730,504.190399 244.886780,478.609375 244.971329,452.359253 
	C244.924301,451.908325 244.877258,451.457428 244.978943,450.115234 
	C244.929291,447.408691 244.879654,444.702148 244.975113,441.069122 
	C244.927734,401.380676 244.880341,361.692200 244.981812,321.080353 
	C245.025848,316.066895 245.069885,311.053436 245.576218,305.980225 
	C245.576218,305.980225 246.018295,305.832367 246.943176,305.979950 
	C288.454468,305.986633 329.965790,306.003693 371.477020,305.956848 
	C372.929474,305.955231 374.381226,305.317535 375.978546,304.052063 
	C375.929962,284.708740 375.881378,265.365417 375.978516,245.107986 
	C375.929810,241.407043 375.881104,237.706100 375.942535,233.137909 
	C375.170074,232.759460 374.397644,232.049957 373.625183,232.049988 
	C332.757874,232.051559 291.890564,232.113083 250.092712,232.022110 
	C234.052429,232.073395 218.012131,232.124695 201.048050,232.033081 
	C194.046249,232.080017 187.044434,232.126953 179.107635,232.022186 
	C175.607971,232.014786 172.102951,231.882645 168.610001,232.032227 
	C164.431534,232.211166 160.263382,232.630905 155.329636,232.742752 
	C149.187973,232.807114 143.046310,232.871475 136.542313,232.201004 
	C127.690422,232.189926 118.838524,232.178848 109.252113,231.700516 
	C109.046677,216.126968 104.109482,202.249954 94.028412,189.581833 
	C91.335129,186.869034 88.834244,183.926559 85.916069,181.482269 
	C71.459839,169.373596 55.350807,162.439789 35.138763,166.058426 
	C34.759174,167.833633 34.048386,169.608658 34.047417,171.384079 
	C33.993988,269.014191 34.034088,366.644348 33.958233,464.274414 
	C33.948410,476.919250 37.311897,488.602722 44.555454,498.677704 
	C49.437428,505.467957 56.081852,510.991089 61.957275,517.039673 
	C61.957275,517.039673 61.914093,517.052002 62.182610,517.691467 
	C65.772293,519.824829 69.361977,521.958130 72.983116,524.018188 
	C72.983116,524.018188 72.907028,524.042053 73.074150,524.548035 
	C73.381973,524.641541 73.689796,524.735107 74.428459,524.975525 
	C74.428459,524.975525 74.880310,525.030457 75.064606,525.536743 
	C75.375473,525.634033 75.686340,525.731323 76.429779,525.975830 
	C76.429779,525.975830 76.883156,526.032837 77.191269,526.663208 
	C78.467369,527.051697 79.743462,527.440186 81.440887,527.976013 
	C81.440887,527.976013 81.883499,528.033508 82.148277,528.624146 
	C82.761383,528.692322 83.374489,528.760559 84.425140,528.976196 
	C84.425140,528.976196 84.883255,529.033630 85.239395,529.700317 
	C86.480568,529.841492 87.721748,529.982666 89.376999,530.809509 
	C96.162186,531.716614 102.947372,532.623718 110.039902,533.571899 
	C109.936409,531.279175 109.884903,530.138000 109.976868,528.069763 
	C109.651283,507.337341 109.183144,486.605927 109.035225,465.872253 
	C108.838135,438.248993 108.890160,410.623962 108.981232,382.175415 
	C108.932922,380.784607 108.884613,379.393768 108.979874,377.074585 
	C109.001129,353.422150 109.022385,329.769714 109.865540,306.014862 
	C111.241913,305.953583 112.618294,305.892334 114.922234,305.978912 
	C132.511154,305.978912 150.100067,305.978912 167.867386,305.978912 
	C167.928207,307.366669 167.988556,308.172424 167.995270,308.978607 
	C168.333084,349.540436 168.761292,390.101837 168.968933,430.664337 
	C169.125793,461.305115 169.347092,491.952850 168.863495,522.586792 
	C168.594345,539.635010 173.480408,554.765015 183.243271,568.305054 
	C186.993988,573.506897 192.349289,577.551880 197.156326,582.654419 
	C197.731033,583.113098 198.305725,583.571716 199.064713,584.536743 
	C199.375610,584.633972 199.686508,584.731262 200.528885,585.040588 
	C200.980331,585.371399 201.431793,585.702209 202.141678,586.644653 
	C203.078415,587.126953 204.015137,587.609192 204.983032,588.018127 
	C204.983032,588.018127 204.907028,588.042114 205.074158,588.548035 
M43.270416,90.214531 
	C34.201027,100.006958 30.702774,111.465981 34.305813,124.373039 
	C36.372871,131.777817 39.261707,139.150940 47.178757,143.692581 
	C56.071922,150.760513 66.110039,152.504807 77.815964,150.013824 
	C83.088715,147.295883 89.195190,145.507416 93.468063,141.674759 
	C103.709160,132.488724 106.763329,120.625549 104.108894,106.968338 
	C101.884537,95.523911 90.476021,83.095993 78.612701,80.185852 
	C76.961967,80.096786 75.284599,80.165947 73.664757,79.893333 
	C61.926853,77.917816 52.074715,81.434792 43.270416,90.214531 
z"/>
<path fill="#A62328" opacity="1.000000" stroke="none" 
	d="
M303.460632,638.000000 
	C303.006531,637.551575 303.013062,637.103149 303.426575,636.263184 
	C304.526550,634.982544 305.381439,634.176880 305.888214,633.192078 
	C313.022064,619.327698 320.043243,605.405029 327.227905,591.567139 
	C332.718048,580.992981 338.400604,570.518738 344.273682,560.199341 
	C349.235413,568.998108 353.839020,577.643738 358.639008,586.178894 
	C361.292450,590.897278 364.275055,595.430542 367.109283,600.047241 
	C364.731415,604.202026 362.919495,608.837219 359.873749,612.425110 
	C349.016785,625.214355 335.016663,633.064697 318.757446,636.950684 
	C317.647125,637.216064 316.460052,637.160339 315.154358,637.626953 
	C311.307098,638.000000 307.614166,638.000000 303.460632,638.000000 
z"/>
<path fill="#C1272D" opacity="1.000000" stroke="none" 
	d="
M196.973450,582.123962 
	C192.349289,577.551880 186.993988,573.506897 183.243271,568.305054 
	C173.480408,554.765015 168.594345,539.635010 168.863495,522.586792 
	C169.347092,491.952850 169.125793,461.305115 168.968933,430.664337 
	C168.761292,390.101837 168.333084,349.540436 167.995270,308.978607 
	C167.988556,308.172424 167.928207,307.366669 167.867386,305.978912 
	C150.100067,305.978912 132.511154,305.978912 114.522919,305.572906 
	C114.719864,304.629974 115.236588,303.943512 115.923981,303.578003 
	C133.050644,294.471893 150.224503,285.454071 167.315292,276.281403 
	C171.348999,274.116486 175.113785,271.450531 179.332031,269.013245 
	C180.101212,269.013702 180.540634,269.016052 181.139984,269.320496 
	C194.841309,277.568268 208.418350,285.454041 221.909103,293.484741 
	C228.688828,297.520538 235.311691,301.819855 241.536270,305.999573 
	C217.872543,305.999146 194.678024,305.999146 171.205688,305.999146 
	C171.504166,307.372650 171.506607,307.890808 171.720917,308.297180 
	C180.712402,325.346954 189.655487,342.422821 198.762390,359.410858 
	C202.671768,366.703430 206.926331,373.811005 211.019379,381.402283 
	C211.008835,382.867737 211.002960,383.933594 210.718811,385.199432 
	C208.623550,388.929077 206.811005,392.460999 204.988800,395.987946 
	C194.770828,415.765411 184.511765,435.521973 174.416107,455.361664 
	C173.724899,456.720001 173.638107,459.004547 174.306046,460.340454 
	C181.213058,474.154694 188.283005,487.888519 195.417633,501.587433 
	C198.476990,507.461548 201.794144,513.201416 204.996033,519.335266 
	C204.997208,520.112122 204.996521,520.556091 204.721573,521.195679 
	C198.452301,532.283752 192.413986,543.152649 186.475647,554.075745 
	C181.530396,563.172119 181.839020,564.998352 189.220322,572.708435 
	C190.944595,574.509583 192.845474,576.152100 194.464905,578.039368 
	C195.492371,579.236755 196.149979,580.751526 196.973450,582.123962 
z"/>
<path fill="#C1272D" opacity="1.000000" stroke="none" 
	d="
M61.937866,517.081055 
	C56.081852,510.991089 49.437428,505.467957 44.555454,498.677704 
	C37.311897,488.602722 33.948410,476.919250 33.958233,464.274414 
	C34.034088,366.644348 33.993988,269.014191 34.047417,171.384079 
	C34.048386,169.608658 34.759174,167.833633 35.576324,166.471100 
	C36.267265,167.650742 36.360657,168.526672 36.797775,169.168503 
	C44.582191,180.598770 52.330051,192.055405 60.256245,203.387115 
	C64.674843,209.704193 69.405060,215.803299 73.996338,222.333862 
	C73.997688,223.111389 73.997543,223.555695 73.723534,224.194763 
	C61.633289,243.585205 49.899345,262.832672 37.910686,281.920135 
	C36.133656,284.749390 36.415020,286.491211 38.317562,288.882202 
	C43.982079,296.001038 49.382175,303.330017 55.031425,310.461365 
	C60.252560,317.052216 65.662071,323.493866 70.989769,330.333649 
	C70.989464,331.109253 70.987991,331.552460 70.684181,332.150146 
	C59.886848,348.419067 49.292534,364.470978 39.051846,380.745422 
	C38.037659,382.357147 38.500355,385.654144 39.435379,387.617615 
	C47.369659,404.278931 55.655762,420.772369 63.644772,437.408142 
	C66.069748,442.457794 67.896645,447.794678 69.722595,453.200378 
	C63.903313,463.407013 58.364609,473.416473 52.813053,483.418793 
	C45.245388,497.053467 45.523933,499.022095 56.649513,510.149811 
	C57.472569,510.972992 58.409657,511.712097 59.092339,512.638672 
	C60.133232,514.051392 60.998211,515.593750 61.937866,517.081055 
z"/>
<path fill="#A9272D" opacity="1.000000" stroke="none" 
	d="
M242.005493,306.000000 
	C235.311691,301.819855 228.688828,297.520538 221.909103,293.484741 
	C208.418350,285.454041 194.841309,277.568268 181.460297,269.176758 
	C188.050674,265.336212 194.478195,261.936768 200.911224,258.547821 
	C213.777618,251.769714 226.676575,245.052170 239.480621,238.158340 
	C241.225708,237.218765 242.503036,235.410385 244.441498,234.002518 
	C247.257767,234.000702 249.629486,234.000656 252.376205,234.000427 
	C253.501205,234.000366 254.251205,234.000488 255.052032,234.345001 
	C255.524826,235.170471 255.857605,235.804489 256.381836,236.110199 
	C268.984100,243.459488 281.550995,250.872437 294.251129,258.049438 
	C299.971436,261.282104 305.964905,264.031372 311.907043,267.415222 
	C312.264252,270.219360 312.548889,272.608215 312.532288,275.159668 
	C290.160126,285.492279 268.089203,295.662323 246.018295,305.832367 
	C246.018295,305.832367 245.576218,305.980225 244.956528,305.998474 
	C243.559723,306.011139 242.782608,306.005585 242.005493,306.000000 
z"/>
<path fill="#A9272D" opacity="1.000000" stroke="none" 
	d="
M204.994156,519.002319 
	C201.794144,513.201416 198.476990,507.461548 195.417633,501.587433 
	C188.283005,487.888519 181.213058,474.154694 174.306046,460.340454 
	C173.638107,459.004547 173.724899,456.720001 174.416107,455.361664 
	C184.511765,435.521973 194.770828,415.765411 204.988800,395.987946 
	C206.811005,392.460999 208.623550,388.929077 211.064758,385.251343 
	C215.191833,391.211090 218.830826,397.245636 222.168488,403.442474 
	C228.591934,415.368591 234.794998,427.413574 241.245728,439.324585 
	C241.889542,440.513306 243.609497,441.119202 244.830002,441.995605 
	C244.879654,444.702148 244.929291,447.408691 244.546478,450.567688 
	C243.173294,451.813904 241.894730,452.422638 241.343155,453.429565 
	C234.497025,465.927612 227.843475,478.531494 220.960663,491.009003 
	C215.772644,500.414093 210.325806,509.676453 204.994156,519.002319 
z"/>
<path fill="#AC2227" opacity="1.000000" stroke="none" 
	d="
M303.166931,397.999451 
	C303.166931,374.582886 303.166931,351.166321 303.166931,327.446014 
	C303.999939,327.307556 304.921783,327.021515 305.843964,327.020447 
	C327.939758,326.995087 350.035583,327.012573 372.131348,326.981201 
	C374.374542,326.978027 376.649719,326.674347 375.572601,330.623901 
	C373.738861,333.502869 372.071198,335.769470 370.923645,338.274323 
	C360.857330,360.247009 350.863129,382.252899 340.892792,404.269379 
	C336.868927,413.154846 332.957397,422.091156 328.693665,430.850403 
	C321.407318,421.051849 314.465149,411.375336 307.391785,401.795685 
	C306.290222,400.303772 304.590210,399.253784 303.166931,397.999451 
z"/>
<path fill="#A32328" opacity="1.000000" stroke="none" 
	d="
M375.833252,495.984161 
	C375.881042,496.438141 375.928833,496.892151 375.618530,497.856812 
	C368.898010,510.515686 362.537964,522.665100 356.172455,534.811646 
	C352.120605,542.543274 348.060730,550.270691 343.729370,557.804688 
	C340.191528,551.844299 336.850677,546.121765 333.680878,540.306030 
	C324.875183,524.149902 316.188446,507.928528 307.281647,491.828674 
	C306.613251,490.620544 304.574341,490.170563 303.172546,489.368164 
	C303.122101,487.186096 303.071686,485.004028 303.453796,482.401978 
	C304.901642,481.039642 306.303101,480.284363 306.865906,479.122772 
	C309.390900,473.911407 311.598480,468.547333 314.066528,463.307098 
	C318.992584,452.847961 324.014282,442.433899 329.268433,432.194366 
	C339.884460,446.909149 350.161102,461.479462 360.602051,475.931091 
	C365.516327,482.733032 370.746307,489.306915 375.833252,495.984161 
z"/>
<path fill="#A9272D" opacity="1.000000" stroke="none" 
	d="
M69.997467,453.000000 
	C67.896645,447.794678 66.069748,442.457794 63.644772,437.408142 
	C55.655762,420.772369 47.369659,404.278931 39.435379,387.617615 
	C38.500355,385.654144 38.037659,382.357147 39.051846,380.745422 
	C49.292534,364.470978 59.886848,348.419067 70.989777,332.297577 
	C82.407417,346.212616 93.182190,360.162170 104.074539,374.019318 
	C105.325859,375.611267 107.233154,376.687561 108.836304,378.002960 
	C108.884613,379.393768 108.932922,380.784607 108.573975,382.654724 
	C97.762573,401.979980 87.294327,420.791046 77.003304,439.698547 
	C74.683762,443.960175 72.982117,448.558105 70.746391,453.000793 
	C70.496750,453.000366 69.997467,453.000000 69.997467,453.000000 
z"/>
<path fill="#B72025" opacity="1.000000" stroke="none" 
	d="
M375.906677,495.521545 
	C370.746307,489.306915 365.516327,482.733032 360.602051,475.931091 
	C350.161102,461.479462 339.884460,446.909149 329.268738,431.945129 
	C328.997040,431.502747 328.994751,431.004303 328.994751,431.004303 
	C332.957397,422.091156 336.868927,413.154846 340.892792,404.269379 
	C350.863129,382.252899 360.857330,360.247009 370.923645,338.274323 
	C372.071198,335.769470 373.738861,333.502869 375.499451,331.061371 
	C375.889038,348.780182 375.982574,366.563416 375.992035,384.346680 
	C376.011688,421.250763 375.986725,458.154846 375.906677,495.521545 
z"/>
<path fill="#9D272D" opacity="1.000000" stroke="none" 
	d="
M108.908089,377.538757 
	C107.233154,376.687561 105.325859,375.611267 104.074539,374.019318 
	C93.182190,360.162170 82.407417,346.212616 71.292114,332.143066 
	C70.987991,331.552460 70.989464,331.109253 71.296410,330.180908 
	C71.949471,329.342621 72.372650,329.037842 72.633728,328.629425 
	C83.610298,311.457916 94.378151,294.147339 105.699615,277.206665 
	C107.972816,273.805206 107.723824,271.939636 105.677460,269.008911 
	C97.902763,257.874146 90.365005,246.574158 82.628899,235.412048 
	C79.914337,231.495331 76.883698,227.797684 73.997391,224.000000 
	C73.997543,223.555695 73.997688,223.111389 74.300934,222.181549 
	C81.182243,211.166000 87.760452,200.636002 94.338669,190.106018 
	C104.109482,202.249954 109.046677,216.126968 109.622742,232.238556 
	C109.998993,233.182327 110.004608,233.588089 110.006592,234.462860 
	C110.001762,256.551819 110.026917,278.171814 109.957664,299.791504 
	C109.950905,301.901031 109.362213,304.008728 109.043640,306.117279 
	C109.022385,329.769714 109.001129,353.422150 108.908089,377.538757 
z"/>
<path fill="#99242A" opacity="1.000000" stroke="none" 
	d="
M303.102478,489.800537 
	C304.574341,490.170563 306.613251,490.620544 307.281647,491.828674 
	C316.188446,507.928528 324.875183,524.149902 333.680878,540.306030 
	C336.850677,546.121765 340.191528,551.844299 343.727509,558.138000 
	C343.999664,559.111084 343.998627,559.555542 343.997559,560.000000 
	C338.400604,570.518738 332.718048,580.992981 327.227905,591.567139 
	C320.043243,605.405029 313.022064,619.327698 305.888214,633.192078 
	C305.381439,634.176880 304.526550,634.982544 303.500061,635.934875 
	C303.112518,599.557800 303.051697,563.117432 303.008118,526.677063 
	C302.993561,514.529053 303.023071,502.380981 303.102478,489.800537 
z"/>
<path fill="#B4272D" opacity="1.000000" stroke="none" 
	d="
M241.536270,305.999573 
	C242.782608,306.005585 243.559723,306.011139 244.725372,306.028320 
	C245.069885,311.053436 245.025848,316.066895 244.548859,321.548615 
	C242.957108,323.256836 241.442917,324.313354 240.693680,325.764740 
	C231.870590,342.856689 223.189880,360.022095 214.374176,377.117920 
	C213.612137,378.595703 212.157150,379.716156 211.024048,381.002625 
	C206.926331,373.811005 202.671768,366.703430 198.762390,359.410858 
	C189.655487,342.422821 180.712402,325.346954 171.720917,308.297180 
	C171.506607,307.890808 171.504166,307.372650 171.205688,305.999146 
	C194.678024,305.999146 217.872543,305.999146 241.536270,305.999573 
z"/>
<path fill="#9D272D" opacity="1.000000" stroke="none" 
	d="
M70.996033,453.001221 
	C72.982117,448.558105 74.683762,443.960175 77.003304,439.698547 
	C87.294327,420.791046 97.762573,401.979980 108.500946,383.066864 
	C108.890160,410.623962 108.838135,438.248993 109.035225,465.872253 
	C109.183144,486.605927 109.651283,507.337341 109.544037,528.525452 
	C107.955704,527.735596 106.410324,526.678711 105.702858,525.216431 
	C94.071442,501.174927 82.545586,477.082336 70.996033,453.001221 
z"/>
<path fill="#9D272D" opacity="1.000000" stroke="none" 
	d="
M204.996033,519.335266 
	C210.325806,509.676453 215.772644,500.414093 220.960663,491.009003 
	C227.843475,478.531494 234.497025,465.927612 241.343155,453.429565 
	C241.894730,452.422638 243.173294,451.813904 244.472137,451.013306 
	C244.877258,451.457428 244.924301,451.908325 244.640411,453.012939 
	C244.206329,455.317871 244.013580,456.969055 244.013031,458.620331 
	C243.998093,503.414368 244.002838,548.208435 243.658508,592.951172 
	C242.521637,591.889587 241.545486,590.974670 240.967575,589.854309 
	C233.882324,576.118835 226.921844,562.318726 219.790085,548.607666 
	C214.972565,539.345825 209.934982,530.198547 204.995819,521.000000 
	C204.996521,520.556091 204.997208,520.112122 204.996033,519.335266 
z"/>
<path fill="#B4272D" opacity="1.000000" stroke="none" 
	d="
M109.454590,306.066071 
	C109.362213,304.008728 109.950905,301.901031 109.957664,299.791504 
	C110.026917,278.171814 110.001762,256.551819 110.459618,234.464874 
	C113.946404,234.000443 116.976540,234.003036 120.204231,234.279907 
	C126.980194,238.389816 133.572357,242.202042 140.134064,246.065979 
	C153.099060,253.700546 166.047195,261.363739 179.002289,269.015076 
	C175.113785,271.450531 171.348999,274.116486 167.315292,276.281403 
	C150.224503,285.454071 133.050644,294.471893 115.923981,303.578003 
	C115.236588,303.943512 114.719864,304.629974 114.059143,305.498993 
	C112.618294,305.892334 111.241913,305.953583 109.454590,306.066071 
z"/>
<path fill="#AC272D" opacity="1.000000" stroke="none" 
	d="
M70.746391,453.000793 
	C82.545586,477.082336 94.071442,501.174927 105.702858,525.216431 
	C106.410324,526.678711 107.955704,527.735596 109.472298,528.989014 
	C109.884903,530.138000 109.936409,531.279175 110.039902,533.571899 
	C102.947372,532.623718 96.162186,531.716614 88.958305,530.163269 
	C87.320831,529.355896 86.102043,529.194763 84.883255,529.033630 
	C84.883255,529.033630 84.425140,528.976196 84.007629,528.683472 
	C83.021255,528.271606 82.452377,528.152588 81.883499,528.033508 
	C81.883499,528.033508 81.440887,527.976013 81.142654,527.552124 
	C79.524002,526.763123 78.203583,526.397949 76.883163,526.032837 
	C76.883156,526.032837 76.429779,525.975830 76.077049,525.707153 
	C75.490074,525.205078 75.208733,525.069092 74.880310,525.030457 
	C74.880310,525.030457 74.428459,524.975525 74.081039,524.709473 
	C73.505608,524.211792 73.230080,524.078003 72.907028,524.042053 
	C72.907028,524.042053 72.983116,524.018188 72.937706,523.704346 
	C69.232895,521.277710 65.573486,519.164856 61.914089,517.052002 
	C61.914093,517.052002 61.957275,517.039673 61.947578,517.060364 
	C60.998211,515.593750 60.133232,514.051392 59.092339,512.638672 
	C58.409657,511.712097 57.472569,510.972992 56.649513,510.149811 
	C45.523933,499.022095 45.245388,497.053467 52.813053,483.418793 
	C58.364609,473.416473 63.903313,463.407013 69.722595,453.200378 
	C69.997467,453.000000 70.496750,453.000366 70.746391,453.000793 
z"/>
<path fill="#A1272D" opacity="1.000000" stroke="none" 
	d="
M179.332031,269.013214 
	C166.047195,261.363739 153.099060,253.700546 140.134064,246.065979 
	C133.572357,242.202042 126.980194,238.389816 120.672134,234.277359 
	C126.263191,233.645630 131.583923,233.290741 136.904648,232.935852 
	C143.046310,232.871475 149.187973,232.807114 156.178894,233.193207 
	C163.711945,233.757736 170.396255,233.948105 177.078979,233.902802 
	C178.070709,233.896072 179.054932,232.777878 180.042633,232.173889 
	C187.044434,232.126953 194.046249,232.080017 201.623764,232.486969 
	C203.886063,233.294312 205.570496,233.941910 207.259552,233.954147 
	C219.504837,234.042816 231.751038,234.003265 243.996948,234.004272 
	C242.503036,235.410385 241.225708,237.218765 239.480621,238.158340 
	C226.676575,245.052170 213.777618,251.769714 200.911224,258.547821 
	C194.478195,261.936768 188.050674,265.336212 181.300385,268.874664 
	C180.540634,269.016052 180.101212,269.013702 179.332031,269.013214 
z"/>
<path fill="#AC272D" opacity="1.000000" stroke="none" 
	d="
M204.721573,521.195679 
	C209.934982,530.198547 214.972565,539.345825 219.790085,548.607666 
	C226.921844,562.318726 233.882324,576.118835 240.967575,589.854309 
	C241.545486,590.974670 242.521637,591.889587 243.866043,592.950439 
	C244.419342,593.000854 244.834518,593.000183 244.834518,593.000183 
	C244.834518,594.813721 244.834518,596.627197 244.834518,599.248779 
	C240.754654,598.899597 236.748978,598.556763 232.079575,597.774536 
	C229.904999,597.234680 228.394165,597.134155 226.883316,597.033630 
	C226.883316,597.033630 226.427734,596.976135 226.020294,596.607178 
	C222.036331,595.169922 218.459824,594.101624 214.883316,593.033325 
	C214.883316,593.033325 214.429474,592.976074 214.076599,592.707520 
	C213.489502,592.205811 213.208344,592.069763 212.880234,592.030823 
	C212.880234,592.030823 212.427444,591.975952 212.075378,591.707642 
	C211.489288,591.206238 211.208298,591.070190 210.880341,591.031128 
	C210.880341,591.031128 210.427704,590.975952 210.075638,590.707520 
	C209.489487,590.205811 209.208389,590.069702 208.880295,590.030762 
	C208.880295,590.030762 208.427948,589.975708 208.075928,589.707275 
	C207.489670,589.205566 207.208450,589.069458 206.880234,589.030518 
	C206.880234,589.030518 206.428375,588.975586 206.081009,588.709534 
	C205.505600,588.211853 205.230057,588.078064 204.907028,588.042114 
	C204.907028,588.042114 204.983032,588.018127 204.931274,587.693604 
	C203.880753,586.923706 202.882004,586.478394 201.883240,586.033081 
	C201.431793,585.702209 200.980331,585.371399 200.126694,584.739502 
	C199.490219,584.205017 199.208862,584.069031 198.880432,584.030396 
	C198.305725,583.571716 197.731033,583.113098 197.064880,582.389160 
	C196.149979,580.751526 195.492371,579.236755 194.464905,578.039368 
	C192.845474,576.152100 190.944595,574.509583 189.220322,572.708435 
	C181.839020,564.998352 181.530396,563.172119 186.475647,554.075745 
	C192.413986,543.152649 198.452301,532.283752 204.721573,521.195679 
z"/>
<path fill="#A1272D" opacity="1.000000" stroke="none" 
	d="
M211.019379,381.402283 
	C212.157150,379.716156 213.612137,378.595703 214.374176,377.117920 
	C223.189880,360.022095 231.870590,342.856689 240.693680,325.764740 
	C241.442917,324.313354 242.957108,323.256836 244.474442,322.010315 
	C244.880341,361.692200 244.927734,401.380676 244.902557,441.532349 
	C243.609497,441.119202 241.889542,440.513306 241.245728,439.324585 
	C234.794998,427.413574 228.591934,415.368591 222.168488,403.442474 
	C218.830826,397.245636 215.191833,391.211090 211.343018,385.051331 
	C211.002960,383.933594 211.008835,382.867737 211.019379,381.402283 
z"/>
<path fill="#C1272D" opacity="1.000000" stroke="none" 
	d="
M79.047501,80.885704 
	C90.476021,83.095993 101.884537,95.523911 104.108894,106.968338 
	C106.763329,120.625549 103.709160,132.488724 93.468063,141.674759 
	C89.195190,145.507416 83.088715,147.295883 77.289719,149.733948 
	C73.306755,142.904251 69.951057,136.298218 66.352058,129.827515 
	C64.461487,126.428436 62.145027,123.266243 60.018974,119.666534 
	C60.017956,118.895271 60.018841,118.454544 60.291973,117.808395 
	C63.685234,111.789589 66.931839,106.039330 69.893196,100.145729 
	C73.083893,93.795700 76.007416,87.311417 79.047501,80.885704 
z"/>
<path fill="#9D272D" opacity="1.000000" stroke="none" 
	d="
M311.834442,266.999969 
	C305.964905,264.031372 299.971436,261.282104 294.251129,258.049438 
	C281.550995,250.872437 268.984100,243.459488 256.381836,236.110199 
	C255.857605,235.804489 255.524826,235.170471 255.520554,234.345306 
	C295.902985,234.002533 335.867706,234.003845 375.832428,234.005157 
	C375.881104,237.706100 375.929810,241.407043 375.603088,245.719421 
	C369.928558,248.647049 365.285400,252.846893 358.589905,251.898895 
	C356.545227,250.127197 354.802216,248.475708 352.989288,246.512161 
	C352.243988,245.817551 351.568604,245.434998 350.503937,245.019058 
	C337.542053,239.278229 326.108765,243.050644 318.947845,251.889389 
	C315.544586,256.090057 314.142853,261.912292 311.834442,266.999969 
z"/>
<path fill="#B72025" opacity="1.000000" stroke="none" 
	d="
M344.273682,560.199341 
	C343.998627,559.555542 343.999664,559.111084 344.002563,558.333313 
	C348.060730,550.270691 352.120605,542.543274 356.172455,534.811646 
	C362.537964,522.665100 368.898010,510.515686 375.546753,498.193481 
	C375.888580,523.076782 376.262970,548.139526 375.834473,573.188538 
	C375.674500,582.543274 372.359619,591.468811 367.439209,599.898071 
	C364.275055,595.430542 361.292450,590.897278 358.639008,586.178894 
	C353.839020,577.643738 349.235413,568.998108 344.273682,560.199341 
z"/>
<path fill="#C1272D" opacity="1.000000" stroke="none" 
	d="
M246.480743,305.906158 
	C268.089203,295.662323 290.160126,285.492279 312.605286,275.538879 
	C313.978241,278.117218 314.839722,280.548798 315.999878,282.828308 
	C320.555786,291.779602 328.716583,295.788269 337.969513,296.759003 
	C344.028046,297.394623 349.954346,294.743774 355.106934,291.202087 
	C356.272766,292.733521 357.084290,294.310120 358.376434,295.080566 
	C364.120209,298.505219 370.001648,301.699005 375.833282,304.976288 
	C374.381226,305.317535 372.929474,305.955231 371.477020,305.956848 
	C329.965790,306.003693 288.454468,305.986633 246.480743,305.906158 
z"/>
<path fill="#A9272D" opacity="1.000000" stroke="none" 
	d="
M94.183533,189.843933 
	C87.760452,200.636002 81.182243,211.166000 74.299438,221.848312 
	C69.405060,215.803299 64.674843,209.704193 60.256245,203.387115 
	C52.330051,192.055405 44.582191,180.598770 36.797775,169.168503 
	C36.360657,168.526672 36.267265,167.650742 36.009670,166.525513 
	C55.350807,162.439789 71.459839,169.373596 85.916069,181.482269 
	C88.834244,183.926559 91.335129,186.869034 94.183533,189.843933 
z"/>
<path fill="#9E2429" opacity="1.000000" stroke="none" 
	d="
M328.693665,430.850403 
	C328.994751,431.004303 328.997040,431.502747 328.996765,431.751984 
	C324.014282,442.433899 318.992584,452.847961 314.066528,463.307098 
	C311.598480,468.547333 309.390900,473.911407 306.865906,479.122772 
	C306.303101,480.284363 304.901642,481.039642 303.526794,481.991119 
	C303.118500,454.309143 303.069702,426.618042 303.093933,398.463196 
	C304.590210,399.253784 306.290222,400.303772 307.391785,401.795685 
	C314.465149,411.375336 321.407318,421.051849 328.693665,430.850403 
z"/>
<path fill="#9D272D" opacity="1.000000" stroke="none" 
	d="
M60.019726,118.013824 
	C60.018841,118.454544 60.017956,118.895271 59.738380,119.865189 
	C57.586567,124.048164 55.809410,127.755318 53.814606,131.341415 
	C51.611237,135.302444 49.208405,139.152527 46.892452,143.050934 
	C39.261707,139.150940 36.372871,131.777817 34.305813,124.373039 
	C30.702774,111.465981 34.201027,100.006958 43.870361,90.274353 
	C49.653450,99.560722 54.836586,108.787270 60.019726,118.013824 
z"/>
<path fill="#A9272D" opacity="1.000000" stroke="none" 
	d="
M60.291973,117.808395 
	C54.836586,108.787270 49.653450,99.560722 44.182938,90.141617 
	C52.074715,81.434792 61.926853,77.917816 73.664757,79.893333 
	C75.284599,80.165947 76.961967,80.096786 78.830101,80.535782 
	C76.007416,87.311417 73.083893,93.795700 69.893196,100.145729 
	C66.931839,106.039330 63.685234,111.789589 60.291973,117.808395 
z"/>
<path fill="#AC272D" opacity="1.000000" stroke="none" 
	d="
M375.905914,304.514160 
	C370.001648,301.699005 364.120209,298.505219 358.376434,295.080566 
	C357.084290,294.310120 356.272766,292.733521 355.229614,290.902557 
	C357.107086,288.507294 358.994934,286.737488 361.240814,284.932648 
	C366.431946,280.238495 367.464569,274.185364 366.833344,268.027527 
	C366.480896,264.589264 364.447418,261.323334 363.097839,257.769348 
	C363.024170,257.558960 362.967102,257.116821 362.972595,256.745789 
	C362.279572,255.593857 361.581085,254.813004 360.606689,253.931030 
	C359.851074,253.226318 359.371338,252.622711 358.891602,252.019104 
	C365.285400,252.846893 369.928558,248.647049 375.530212,246.176483 
	C375.881378,265.365417 375.929962,284.708740 375.905914,304.514160 
z"/>
<path fill="#AC272D" opacity="1.000000" stroke="none" 
	d="
M47.035606,143.371765 
	C49.208405,139.152527 51.611237,135.302444 53.814606,131.341415 
	C55.809410,127.755318 57.586567,124.048164 59.740288,120.195724 
	C62.145027,123.266243 64.461487,126.428436 66.352058,129.827515 
	C69.951057,136.298218 73.306755,142.904251 76.900459,149.784180 
	C66.110039,152.504807 56.071922,150.760513 47.035606,143.371765 
z"/>
<path fill="#AC272D" opacity="1.000000" stroke="none" 
	d="
M375.887482,233.571533 
	C335.867706,234.003845 295.902985,234.002533 255.469742,234.000916 
	C254.251205,234.000488 253.501205,234.000366 252.280594,233.758209 
	C251.547760,233.066910 251.285522,232.617630 251.023270,232.168350 
	C291.890564,232.113083 332.757874,232.051559 373.625183,232.049988 
	C374.397644,232.049957 375.170074,232.759460 375.887482,233.571533 
z"/>
<path fill="#A9272D" opacity="1.000000" stroke="none" 
	d="
M244.907166,592.536438 
	C244.834518,593.000183 244.419342,593.000854 244.211807,593.001648 
	C244.002838,548.208435 243.998093,503.414368 244.013031,458.620331 
	C244.013580,456.969055 244.206329,455.317871 244.569794,453.347473 
	C244.886780,478.609375 244.963730,504.190399 244.993851,529.771484 
	C245.018326,550.538574 244.986603,571.305603 244.907166,592.536438 
z"/>
<path fill="#B4272D" opacity="1.000000" stroke="none" 
	d="
M250.557983,232.095230 
	C251.285522,232.617630 251.547760,233.066910 251.905609,233.758408 
	C249.629486,234.000656 247.257767,234.000702 244.441498,234.002518 
	C231.751038,234.003265 219.504837,234.042816 207.259552,233.954147 
	C205.570496,233.941910 203.886063,233.294312 202.085663,232.558411 
	C218.012131,232.124695 234.052429,232.073395 250.557983,232.095230 
z"/>
<path fill="#C1272D" opacity="1.000000" stroke="none" 
	d="
M136.723480,232.568420 
	C131.583923,233.290741 126.263191,233.645630 120.474564,234.003067 
	C116.976540,234.003036 113.946404,234.000443 110.463249,233.995850 
	C110.004608,233.588089 109.998993,233.182327 109.990005,232.472168 
	C118.838524,232.178848 127.690422,232.189926 136.723480,232.568420 
z"/>
<path fill="#C1272D" opacity="1.000000" stroke="none" 
	d="
M179.575134,232.098038 
	C179.054932,232.777878 178.070709,233.896072 177.078979,233.902802 
	C170.396255,233.948105 163.711945,233.757736 156.559448,233.295013 
	C160.263382,232.630905 164.431534,232.211166 168.610001,232.032227 
	C172.102951,231.882645 175.607971,232.014786 179.575134,232.098038 
z"/>
<path fill="#C1272D" opacity="1.000000" stroke="none" 
	d="
M62.048347,517.371704 
	C65.573486,519.164856 69.232895,521.277710 72.921982,523.740967 
	C69.361977,521.958130 65.772293,519.824829 62.048347,517.371704 
z"/>
<path fill="#C1272D" opacity="1.000000" stroke="none" 
	d="
M215.057373,593.365479 
	C218.459824,594.101624 222.036331,595.169922 225.802826,596.533447 
	C222.405701,595.785095 218.818573,594.741394 215.057373,593.365479 
z"/>
<path fill="#C1272D" opacity="1.000000" stroke="none" 
	d="
M77.037216,526.348022 
	C78.203583,526.397949 79.524002,526.763123 80.931992,527.478516 
	C79.743462,527.440186 78.467369,527.051697 77.037216,526.348022 
z"/>
<path fill="#C1272D" opacity="1.000000" stroke="none" 
	d="
M227.076691,597.378418 
	C228.394165,597.134155 229.904999,597.234680 231.695633,597.583191 
	C230.406967,597.795227 228.838501,597.759216 227.076691,597.378418 
z"/>
<path fill="#C1272D" opacity="1.000000" stroke="none" 
	d="
M202.012451,586.338867 
	C202.882004,586.478394 203.880753,586.923706 204.915695,587.730286 
	C204.015137,587.609192 203.078415,587.126953 202.012451,586.338867 
z"/>
<path fill="#C1272D" opacity="1.000000" stroke="none" 
	d="
M85.061325,529.366943 
	C86.102043,529.194763 87.320831,529.355896 88.751266,529.820435 
	C87.721748,529.982666 86.480568,529.841492 85.061325,529.366943 
z"/>
<path fill="#C1272D" opacity="1.000000" stroke="none" 
	d="
M82.015884,528.328857 
	C82.452377,528.152588 83.021255,528.271606 83.788857,528.609741 
	C83.374489,528.760559 82.761383,528.692322 82.015884,528.328857 
z"/>
<path fill="#C1272D" opacity="1.000000" stroke="none" 
	d="
M74.972458,525.283569 
	C75.208733,525.069092 75.490074,525.205078 75.860764,525.633545 
	C75.686340,525.731323 75.375473,525.634033 74.972458,525.283569 
z"/>
<path fill="#C1272D" opacity="1.000000" stroke="none" 
	d="
M198.972565,584.283569 
	C199.208862,584.069031 199.490219,584.205017 199.860962,584.633423 
	C199.686508,584.731262 199.375610,584.633972 198.972565,584.283569 
z"/>
<path fill="#C1272D" opacity="1.000000" stroke="none" 
	d="
M72.990585,524.295044 
	C73.230080,524.078003 73.505608,524.211792 73.865616,524.636047 
	C73.689796,524.735107 73.381973,524.641541 72.990585,524.295044 
z"/>
<path fill="#C1272D" opacity="1.000000" stroke="none" 
	d="
M204.990601,588.295044 
	C205.230057,588.078064 205.505600,588.211853 205.865616,588.636047 
	C205.689774,588.735107 205.381958,588.641602 204.990601,588.295044 
z"/>
<path fill="#C1272D" opacity="1.000000" stroke="none" 
	d="
M206.972336,589.283569 
	C207.208450,589.069458 207.489670,589.205566 207.860260,589.633789 
	C207.685883,589.731384 207.375153,589.634033 206.972336,589.283569 
z"/>
<path fill="#C1272D" opacity="1.000000" stroke="none" 
	d="
M208.972305,590.283691 
	C209.208389,590.069702 209.489487,590.205811 209.859802,590.633972 
	C209.685455,590.731506 209.374893,590.634094 208.972305,590.283691 
z"/>
<path fill="#C1272D" opacity="1.000000" stroke="none" 
	d="
M210.972321,591.284058 
	C211.208298,591.070190 211.489288,591.206238 211.859482,591.634155 
	C211.685196,591.731689 211.374741,591.634338 210.972321,591.284058 
z"/>
<path fill="#C1272D" opacity="1.000000" stroke="none" 
	d="
M212.972321,592.283813 
	C213.208344,592.069763 213.489502,592.205811 213.860046,592.633850 
	C213.685699,592.731506 213.375046,592.634216 212.972321,592.283813 
z"/>
<path fill="#AC272D" opacity="1.000000" stroke="none" 
	d="
M73.723541,224.194763 
	C76.883698,227.797684 79.914337,231.495331 82.628899,235.412048 
	C90.365005,246.574158 97.902763,257.874146 105.677460,269.008911 
	C107.723824,271.939636 107.972816,273.805206 105.699615,277.206665 
	C94.378151,294.147339 83.610298,311.457916 72.633728,328.629425 
	C72.372650,329.037842 71.949471,329.342621 71.295250,329.848480 
	C65.662071,323.493866 60.252560,317.052216 55.031425,310.461365 
	C49.382175,303.330017 43.982079,296.001038 38.317562,288.882202 
	C36.415020,286.491211 36.133656,284.749390 37.910686,281.920135 
	C49.899345,262.832672 61.633289,243.585205 73.723541,224.194763 
z"/>
<path fill="#FFFFFF" opacity="1.000000" stroke="none" 
	d="
M360.882751,284.967682 
	C358.994934,286.737488 357.107086,288.507294 355.096527,290.576599 
	C349.954346,294.743774 344.028046,297.394623 337.969513,296.759003 
	C328.716583,295.788269 320.555786,291.779602 315.999878,282.828308 
	C314.839722,280.548798 313.978241,278.117218 312.906555,275.376282 
	C312.548889,272.608215 312.264252,270.219360 311.907043,267.415222 
	C314.142853,261.912292 315.544586,256.090057 318.947845,251.889389 
	C326.108765,243.050644 337.542053,239.278229 350.616150,245.302048 
	C351.764832,246.020370 352.412018,246.422302 353.059204,246.824219 
	C354.802216,248.475708 356.545227,250.127197 358.589905,251.898895 
	C359.371338,252.622711 359.851074,253.226318 360.661102,254.260040 
	C361.649994,255.499039 362.308563,256.307922 362.967102,257.116821 
	C362.967102,257.116821 363.024170,257.558960 363.030823,258.169037 
	C363.691620,262.250244 365.203857,265.823975 364.803802,269.169006 
	C364.164398,274.515076 362.255157,279.709290 360.882751,284.967682 
z"/>
<path fill="#C1272D" opacity="1.000000" stroke="none" 
	d="
M352.989288,246.512161 
	C352.412018,246.422302 351.764832,246.020370 351.005432,245.335449 
	C351.568604,245.434998 352.243988,245.817551 352.989288,246.512161 
z"/>
<path fill="#C1272D" opacity="1.000000" stroke="none" 
	d="
M361.240784,284.932648 
	C362.255157,279.709290 364.164398,274.515076 364.803802,269.169006 
	C365.203857,265.823975 363.691620,262.250244 363.104462,258.379425 
	C364.447418,261.323334 366.480896,264.589264 366.833344,268.027527 
	C367.464569,274.185364 366.431946,280.238495 361.240784,284.932648 
z"/>
<path fill="#C1272D" opacity="1.000000" stroke="none" 
	d="
M362.972595,256.745789 
	C362.308563,256.307922 361.649994,255.499039 360.937012,254.361145 
	C361.581085,254.813004 362.279572,255.593857 362.972595,256.745789 
z"/>
</svg>